<?xml version="1.0" standalone="no"?><!DOCTYPE svg PUBLIC "-//W3C//DTD SVG 1.1//EN" "http://www.w3.org/Graphics/SVG/1.1/DTD/svg11.dtd"><svg t="1720056037550" class="icon" viewBox="0 0 1024 1024" version="1.1" xmlns="http://www.w3.org/2000/svg" p-id="3236" xmlns:xlink="http://www.w3.org/1999/xlink" width="200" height="200"><path d="M460.8 840.7552a726.7328 726.7328 0 0 1-76.8 4.0448c-187.5456 0-307.2-68.2496-307.2-115.2v-61.184C145.7152 713.984 255.5904 742.4 384 742.4c26.4704 0 52.1216-1.28 76.8-3.584v-77.2608a726.7328 726.7328 0 0 1-76.8 4.0448c-187.5456 0-307.2-68.2496-307.2-115.2v-61.44c68.9152 45.824 178.7904 74.24 307.2 74.24 26.4704 0 52.1216-1.28 76.8-3.584V482.3552A726.7328 726.7328 0 0 1 384 486.4c-187.5456 0-307.2-68.2496-307.2-115.2v-61.44C145.7152 355.584 255.5392 384 384 384s238.2848-28.416 307.2-74.0352V358.4h76.8V192C768 82.5344 602.9312 0 384 0S0 82.5344 0 192v537.6C0 839.0656 165.0688 921.6 384 921.6c26.4704 0 52.1216-1.2288 76.8-3.5328zM384 76.8c187.5456 0 307.2 68.2496 307.2 115.2S571.5456 307.2 384 307.2 76.8 238.9504 76.8 192 196.4544 76.8 384 76.8z" fill="#00C080" p-id="3237"></path><path d="M768 409.6c-145.92 0-256 55.04-256 128v358.4c0 72.96 110.08 128 256 128s256-55.04 256-128v-358.4c0-72.96-110.08-128-256-128z m0 324.2496c-125.0304 0-204.8-45.4656-204.8-76.8v-40.96c46.08 30.4128 119.1936 49.3568 204.8 49.3568s158.72-18.944 204.8-49.3568v40.96c0 31.3344-79.7696 76.8-204.8 76.8z m-204.8 1.8944c46.08 30.3616 119.1936 49.3056 204.8 49.3056s158.72-18.944 204.8-49.3056v40.96c0 31.2832-79.7696 76.8-204.8 76.8s-204.8-45.5168-204.8-76.8zM768 460.8c125.0304 0 204.8 45.4656 204.8 76.8s-79.7696 76.8-204.8 76.8-204.8-45.4656-204.8-76.8 79.7696-76.8 204.8-76.8z m0 512c-125.0304 0-204.8-45.4656-204.8-76.8v-40.96c46.08 30.4128 119.1936 49.3568 204.8 49.3568s158.72-18.944 204.8-49.3568v40.96c0 31.3344-79.7696 76.8-204.8 76.8z" fill="#00C080" p-id="3238"></path></svg>