<?xml version="1.0" standalone="no"?><!DOCTYPE svg PUBLIC "-//W3C//DTD SVG 1.1//EN" "http://www.w3.org/Graphics/SVG/1.1/DTD/svg11.dtd"><svg t="1720056612408" class="icon" viewBox="0 0 1024 1024" version="1.1" xmlns="http://www.w3.org/2000/svg" p-id="27338" xmlns:xlink="http://www.w3.org/1999/xlink" width="200" height="200"><path d="M580.256 68.256h-136.544a102.4 102.4 0 0 0 0 204.8h136.544a102.4 102.4 0 0 0 0-204.8z m0 136.544h-136.544c-18.784 0-34.144-15.36-34.144-34.144s15.36-34.144 34.144-34.144h136.544c18.784 0 34.144 15.36 34.144 34.144S599.04 204.8 580.256 204.8z m0 204.8h-136.544a102.4 102.4 0 0 0 0 204.8h136.544a102.4 102.4 0 0 0 0-204.8z m0 136.544h-136.544c-18.784 0-34.144-15.36-34.144-34.144s15.36-34.144 34.144-34.144h136.544c18.784 0 34.144 15.36 34.144 34.144s-15.36 34.144-34.144 34.144z m0 204.8h-136.544a102.4 102.4 0 0 0 0 204.8h136.544a102.4 102.4 0 0 0 0-204.8z m0 136.512h-136.544c-18.784 0-34.144-15.36-34.144-34.144s15.36-34.144 34.144-34.144h136.544c18.784 0 34.144 15.36 34.144 34.144s-15.36 34.144-34.144 34.144zM204.8 819.2h-0.352a135.552 135.552 0 0 1-96.256-39.936c-25.728-25.824-39.936-60.064-39.936-96.608s14.208-70.784 39.936-96.608a135.072 135.072 0 0 1 96.064-39.936h68.8v-68.256H204.8c-113.12 0-204.8 91.68-204.8 204.8s91.68 204.8 204.8 204.8v68.256l102.4-102.4-102.4-102.4v68.256zM819.2 136.544h-68.256V204.8h68.608c37.6 0 71.648 15.264 96.256 39.936 25.824 25.824 39.936 60.064 39.936 96.608s-14.208 70.784-39.936 96.608a135.456 135.456 0 0 1-96.224 39.936H819.2h0.032v-68.256l-102.4 102.4 102.4 102.4v-68.256c113.12 0 204.8-91.68 204.8-204.8s-91.68-204.8-204.8-204.8z" p-id="27339" fill="#56BD85"></path></svg>