<svg xmlns="http://www.w3.org/2000/svg" xmlns:xlink="http://www.w3.org/1999/xlink" viewBox="0 0 320 320"><defs><clipPath id="a"><rect x="-5.18" y="45.33" width="330.36" height="246.17" style="fill:none"/></clipPath></defs><g style="clip-path:url(#a)"><polyline points="9.84 243.01 14.35 229.26 16.75 222.61 18.55 218.15 20.36 214.25 21.86 211.5 23.07 209.65 24.27 208.14 25.47 206.99 26.37 206.36 27.27 205.94 28.18 205.74 29.08 205.74 29.98 205.96 30.88 206.38 31.78 207.02 32.98 208.19 34.19 209.7 35.39 211.56 36.89 214.32 38.4 217.54 40.2 221.93 42.3 227.65 45.01 235.67 53.13 260.27 55.23 265.8 57.03 269.98 58.54 273 60.04 275.54 61.24 277.21 62.45 278.53 63.65 279.5 64.55 279.98 65.45 280.24 66.36 280.3 67.26 280.15 68.16 279.78 69.06 279.2 69.96 278.42 71.17 277.07 72.37 275.37 73.57 273.34 75.07 270.38 76.58 266.98 78.38 262.42 80.48 256.53 83.49 247.46 89.8 228.18 92.21 221.64 94.01 217.28 95.52 214.1 97.02 211.37 98.22 209.55 99.42 208.06 100.63 206.93 101.53 206.32 102.43 205.92 103.33 205.73 104.23 205.75 105.14 205.98 106.04 206.43 106.94 207.08 108.14 208.27 109.34 209.81 110.55 211.69 112.05 214.47 113.55 217.71 115.36 222.12 117.46 227.86 120.17 235.9 127.98 259.64 130.09 265.24 131.89 269.49 133.4 272.57 134.9 275.19 136.1 276.92 137.3 278.31 138.5 279.34 139.41 279.87 140.31 280.2 141.21 280.31 142.11 280.21 143.01 279.89 143.92 279.37 144.82 278.64 146.02 277.35 147.22 275.71 148.43 273.75 149.93 270.85 151.43 267.52 153.24 263.01 155.34 257.19 158.35 248.15 164.96 227.97 167.06 222.22 168.87 217.8 170.67 213.95 172.18 211.25 173.38 209.44 174.58 207.98 175.78 206.87 176.69 206.28 177.59 205.89 178.49 205.72 179.39 205.76 180.29 206.01 181.19 206.47 182.1 207.15 183.3 208.36 184.5 209.92 185.7 211.81 187.21 214.63 188.71 217.89 190.51 222.32 192.62 228.07 195.32 236.13 203.14 259.85 205.24 265.42 207.05 269.65 208.55 272.71 210.05 275.31 211.26 277.02 212.46 278.39 213.66 279.39 214.56 279.91 215.47 280.21 216.37 280.31 217.27 280.19 218.17 279.86 219.07 279.31 219.97 278.57 221.18 277.26 222.38 275.6 223.58 273.61 225.09 270.7 226.59 267.34 228.39 262.81 230.5 256.97 233.5 247.92 240.12 227.75 242.22 222.03 244.03 217.63 245.53 214.4 247.03 211.62 248.23 209.76 249.44 208.23 250.64 207.05 251.54 206.41 252.44 205.97 253.34 205.74 254.25 205.73 255.15 205.93 256.05 206.34 256.95 206.96 257.85 207.78 259.06 209.19 260.26 210.94 261.46 213.02 262.96 216.04 264.77 220.22 266.87 225.75 269.28 232.71 273.19 244.77 277.09 256.64 279.5 263.31 281.3 267.78 283.11 271.69 284.61 274.46 285.81 276.31 287.01 277.83 288.22 279 289.12 279.63 290.02 280.06 290.92 280.28 291.82 280.28 292.73 280.07 293.63 279.66 294.53 279.03 295.43 278.2 296.63 276.78 297.84 275.01 299.34 272.36 300.84 269.24 302.65 264.95 304.75 259.33 307.46 251.38 310.16 243.01" style="fill:none;stroke:#56bd85;stroke-linecap:square;stroke-linejoin:round;stroke-width:13px"/></g><g style="clip-path:url(#a)"><polyline points="9.84 243.01 20.66 232.21 26.37 226.79 31.48 222.23 35.99 218.48 40.2 215.25 44.11 212.49 48.02 209.98 51.92 207.72 55.83 205.7 59.74 203.91 63.65 202.35 67.86 200.87 72.67 199.42 78.38 197.93 88.6 195.53 95.82 193.72 100.93 192.23 105.44 190.7 109.64 189.05 113.55 187.29 117.46 185.3 121.37 183.07 125.28 180.58 129.19 177.85 133.4 174.65 137.6 171.18 142.41 166.94 147.82 161.87 154.44 155.37 173.98 135.93 179.39 130.96 184.2 126.83 188.41 123.47 192.62 120.38 196.53 117.77 200.43 115.4 204.34 113.28 208.25 111.4 212.16 109.74 216.37 108.18 220.88 106.74 225.99 105.32 232.9 103.64 245.23 100.68 250.34 99.22 254.85 97.73 259.06 96.11 262.96 94.4 266.87 92.45 270.78 90.27 274.69 87.83 278.6 85.15 282.5 82.23 286.71 78.83 291.22 74.92 296.33 70.2 302.35 64.36 310.16 56.52" style="fill:none;stroke:#56bd85;stroke-linecap:square;stroke-linejoin:round;stroke-width:13px"/></g></svg>