<svg xmlns="http://www.w3.org/2000/svg" xmlns:xlink="http://www.w3.org/1999/xlink" viewBox="0 0 480 320"><defs><clipPath id="a"><rect x="26.84" y="43.16" width="431.48" height="246.17" style="fill:none"/></clipPath></defs><g style="clip-path:url(#a)"><polyline points="46.45 240.84 52.34 227.1 55.48 220.45 57.84 215.98 60.2 212.09 62.16 209.33 63.73 207.49 65.3 205.98 66.87 204.82 68.05 204.2 69.23 203.78 70.4 203.57 71.58 203.57 72.76 203.79 73.94 204.22 75.12 204.85 76.69 206.02 78.26 207.54 79.83 209.4 81.79 212.16 83.75 215.38 86.11 219.76 88.86 225.48 92.39 233.5 102.99 258.11 105.74 263.63 108.1 267.81 110.06 270.83 112.03 273.38 113.59 275.05 115.17 276.37 116.74 277.33 117.92 277.81 119.09 278.08 120.27 278.14 121.45 277.98 122.63 277.62 123.8 277.04 124.98 276.26 126.55 274.9 128.12 273.2 129.69 271.18 131.66 268.21 133.62 264.82 135.98 260.25 138.72 254.37 142.65 245.29 150.9 226.02 154.04 219.47 156.39 215.12 158.36 211.94 160.32 209.21 161.89 207.38 163.46 205.9 165.03 204.76 166.21 204.15 167.39 203.75 168.57 203.56 169.75 203.59 170.92 203.82 172.1 204.26 173.28 204.92 174.85 206.11 176.42 207.65 177.99 209.52 179.95 212.31 181.92 215.55 184.27 219.96 187.02 225.7 190.56 233.73 200.76 257.48 203.51 263.07 205.87 267.32 207.83 270.41 209.79 273.03 211.37 274.76 212.94 276.15 214.51 277.18 215.69 277.71 216.86 278.03 218.04 278.14 219.22 278.04 220.4 277.73 221.57 277.2 222.75 276.47 224.32 275.19 225.89 273.55 227.46 271.58 229.43 268.69 231.39 265.36 233.75 260.85 236.5 255.02 240.42 245.99 249.06 225.8 251.81 220.06 254.16 215.63 256.52 211.79 258.48 209.08 260.05 207.28 261.63 205.82 263.19 204.71 264.37 204.11 265.55 203.73 266.73 203.56 267.91 203.6 269.08 203.85 270.26 204.31 271.44 204.98 273.01 206.19 274.58 207.75 276.15 209.65 278.12 212.46 280.08 215.72 282.44 220.15 285.18 225.91 288.72 233.96 298.93 257.69 301.68 263.26 304.03 267.49 305.99 270.55 307.96 273.15 309.53 274.86 311.1 276.22 312.67 277.23 313.85 277.75 315.02 278.05 316.2 278.14 317.38 278.02 318.56 277.69 319.74 277.15 320.92 276.4 322.49 275.09 324.06 273.44 325.63 271.45 327.59 268.53 329.55 265.18 331.91 260.65 334.66 254.81 338.58 245.76 347.22 225.59 349.97 219.86 352.33 215.46 354.29 212.24 356.25 209.46 357.82 207.59 359.39 206.06 360.97 204.89 362.14 204.24 363.32 203.81 364.5 203.58 365.68 203.57 366.86 203.77 368.03 204.18 369.21 204.79 370.39 205.62 371.96 207.03 373.53 208.78 375.1 210.86 377.06 213.88 379.42 218.06 382.17 223.58 385.31 230.54 390.41 242.6 395.52 254.48 398.66 261.14 401.02 265.62 403.37 269.53 405.33 272.29 406.91 274.15 408.48 275.67 410.05 276.83 411.23 277.47 412.4 277.9 413.58 278.12 414.76 278.12 415.94 277.91 417.12 277.49 418.29 276.87 419.47 276.03 421.04 274.61 422.61 272.85 424.57 270.19 426.54 267.07 428.89 262.79 431.64 257.16 435.18 249.22 438.71 240.84" style="fill:none;stroke:#56bd85;stroke-linecap:square;stroke-linejoin:round;stroke-width:13px"/></g><g style="clip-path:url(#a)"><polyline points="46.45 240.84 60.59 230.04 68.05 224.63 74.72 220.07 80.61 216.32 86.11 213.08 91.21 210.33 96.32 207.81 101.42 205.55 106.53 203.54 111.63 201.75 116.74 200.18 122.23 198.71 128.52 197.26 135.98 195.76 149.33 193.37 158.75 191.56 165.43 190.07 171.31 188.54 176.81 186.88 181.92 185.13 187.02 183.13 192.13 180.9 197.23 178.42 202.34 175.69 207.83 172.49 213.33 169.02 219.61 164.78 226.68 159.71 235.32 153.2 260.84 133.77 267.91 128.79 274.19 124.66 279.69 121.31 285.18 118.22 290.29 115.6 295.39 113.23 300.5 111.11 305.6 109.23 310.71 107.58 316.2 106.02 322.09 104.57 328.77 103.16 337.8 101.48 353.9 98.52 360.57 97.06 366.46 95.56 371.96 93.95 377.06 92.23 382.17 90.29 387.27 88.1 392.38 85.67 397.48 82.99 402.59 80.06 408.08 76.66 413.97 72.75 420.65 68.04 428.5 62.2 438.71 54.35" style="fill:none;stroke:#56bd85;stroke-linecap:square;stroke-linejoin:round;stroke-width:13px"/></g></svg>