<?xml version="1.0" standalone="no"?><!DOCTYPE svg PUBLIC "-//W3C//DTD SVG 1.1//EN" "http://www.w3.org/Graphics/SVG/1.1/DTD/svg11.dtd"><svg t="1720325416482" class="icon" viewBox="0 0 1365 1024" version="1.1" xmlns="http://www.w3.org/2000/svg" p-id="2915" id="mx_n_1720325416483" xmlns:xlink="http://www.w3.org/1999/xlink" width="266.6015625" height="200"><path d="M1237.333333 925.866667H128V98.133333h38.4v789.333334H1237.333333z" fill="#ffffff" p-id="2916" data-spm-anchor-id="a313x.search_index.0.i5.6e483a81kRhZXZ" class="selected"></path><path d="M968.533333 712.533333h-4.266666c-12.8-4.266667-21.333333-17.066667-21.333334-29.866666l51.2-247.466667c4.266667-21.333333 25.6-34.133333 46.933334-29.866667 8.533333 0 17.066667 4.266667 21.333333 12.8l157.866667 174.933334c8.533333 8.533333 8.533333 25.6 0 34.133333-8.533333 8.533333-25.6 8.533333-34.133334 0L1045.333333 469.333333l-46.933333 226.133334c-8.533333 8.533333-17.066667 17.066667-29.866667 17.066666z m55.466667-264.533333z m-371.2 204.8c-8.533333 0-17.066667-4.266667-21.333333-12.8l-192-290.133333-149.333334 268.8c-8.533333 12.8-21.333333 17.066667-34.133333 8.533333-12.8-4.266667-17.066667-21.333333-12.8-34.133333l157.866667-285.866667c8.533333-8.533333 17.066667-12.8 25.6-17.066667 8.533333-4.266667 21.333333 0 29.866666 4.266667 8.533333 0 12.8 4.266667 12.8 12.8l200.533334 307.2c8.533333 12.8 4.266667 25.6-8.533334 34.133333 0 4.266667-4.266667 4.266667-8.533333 4.266667zM426.666667 332.8z m21.333333 0z" fill="#56BD85" p-id="2917"></path><path d="M968.533333 712.533333c-8.533333 0-12.8-4.266667-17.066666-8.533333L768 499.2c-8.533333-4.266667-12.8-4.266667-12.8 0L674.133333 640c-8.533333 12.8-21.333333 17.066667-34.133333 8.533333-12.8-8.533333-17.066667-21.333333-8.533333-34.133333l81.066666-140.8c17.066667-29.866667 55.466667-38.4 81.066667-21.333333l12.8 12.8 183.466667 204.8c8.533333 8.533333 8.533333 25.6 0 34.133333-8.533333 4.266667-17.066667 8.533333-21.333334 8.533333z" fill="#56BD85" p-id="2918"></path></svg>